<svg width="52" height="52" viewBox="0 0 52 52" fill="none" xmlns="http://www.w3.org/2000/svg">
<path d="M18.9688 3.27272C24.3183 10.9336 27.3993 10.8273 33.0312 3.27272" stroke="black"/>
<path d="M18.9688 2.51515L19.0845 16.9091H9.70947L12.7188 36.6061H39.2813L42.2905 16.9091H32.9155L33.0313 2.51515M12.8923 38.8788H39.4548L40.8437 44.9394L36.1562 51L30.6874 45.697L25.9999 51L21.3124 45.697L15.8437 51L11.1562 44.9394L12.8923 38.8788Z" stroke="black"/>
<path d="M16.625 14.6364V1.00553C5.85007 0.841376 2.84139 4.31061 1 14.6364H16.625Z" stroke="black"/>
<path d="M35.375 14.6364V1.00553C46.1499 0.841376 49.1586 4.31061 51 14.6364H35.375Z" stroke="black"/>
</svg>
