<svg width="42" height="37" viewBox="0 0 42 37" fill="none" xmlns="http://www.w3.org/2000/svg">
<path d="M18.1638 6.06579V1H33.1271V6.06579H32.2469M18.1638 6.06579H32.2469M18.1638 6.06579C18.1638 6.06579 19.4841 14.8158 17.7237 16.1974C15.9633 17.5789 14.643 17.5789 14.643 17.5789H6.72127C6.72127 17.5789 5.40098 17.5789 4.08068 18.5C2.76039 19.4211 2.76039 21.7237 2.76039 21.7237V30.4737H1V36H34.4474V30.4737H32.2469V6.06579" stroke="black"/>
<path d="M2.76038 30.4737H31.8068M9.36184 18.0395V20.3421M14.2029 18.0395V20.3421M18.6039 16.1974V18.0395M19.044 11.5921H21.6846" stroke="black"/>
<path d="M37.9682 18.0395C38.8484 14.8158 37.9682 13.4342 37.9682 13.4342C36.3545 14.8158 32.9511 17.6711 32.247 18.0395H29.6064C29.6064 18.0395 24.3252 17.1184 24.3252 22.1842C24.3252 27.25 29.6064 26.3289 29.6064 26.3289H37.9682C37.9682 26.3289 38.8484 25.8684 39.2885 24.9474C39.7286 24.0263 39.2885 21.7237 39.2885 21.7237M37.9682 18.0395L35.3276 20.3421M37.9682 18.0395L40.6088 15.7368C40.6088 15.7368 41.489 18.5 40.6088 19.8816C39.7286 21.2632 39.2885 21.7237 39.2885 21.7237M35.3276 23.1053C35.3276 23.1053 37.088 23.1053 37.9682 22.6447C38.8484 22.1842 39.2885 21.7237 39.2885 21.7237M32.247 22.1842C32.289 22.134 30.4229 18.9743 28.7262 22.1842" stroke="black"/>
</svg>
