<svg width="356" height="108" viewBox="0 0 356 108" fill="none" xmlns="http://www.w3.org/2000/svg">
<g filter="url(#filter0_d_152_220)">
<path fill-rule="evenodd" clip-rule="evenodd" d="M45.2073 99.2294C21.7861 95.0744 4 74.6143 4 50C4 22.3858 26.3858 0 54 0C74.7016 0 92.4647 12.5809 100.061 30.5141C103.365 28.9036 107.077 28 111 28C124.807 28 136 39.1929 136 53C136 54.0153 135.939 55.0164 135.822 56H147C159.15 56 169 65.8497 169 78C169 90.1503 159.15 100 147 100H54H51C48.9952 100 47.053 99.7318 45.2073 99.2294Z" fill="white"/>
</g>
<g filter="url(#filter1_d_152_220)">
<path fill-rule="evenodd" clip-rule="evenodd" d="M328.488 56C328.824 54.0505 329 52.0457 329 50C329 30.67 313.33 15 294 15C274.67 15 259 30.67 259 50C259 52.0457 259.176 54.0505 259.512 56H234C221.85 56 212 65.8497 212 78C212 90.1503 221.85 100 234 100H330C342.15 100 352 90.1503 352 78C352 65.8497 342.15 56 330 56H328.488Z" fill="white"/>
</g>
<defs>
<filter id="filter0_d_152_220" x="0" y="0" width="173" height="108" filterUnits="userSpaceOnUse" color-interpolation-filters="sRGB">
<feFlood flood-opacity="0" result="BackgroundImageFix"/>
<feColorMatrix in="SourceAlpha" type="matrix" values="0 0 0 0 0 0 0 0 0 0 0 0 0 0 0 0 0 0 127 0" result="hardAlpha"/>
<feOffset dy="4"/>
<feGaussianBlur stdDeviation="2"/>
<feComposite in2="hardAlpha" operator="out"/>
<feColorMatrix type="matrix" values="0 0 0 0 0 0 0 0 0 0 0 0 0 0 0 0 0 0 0.25 0"/>
<feBlend mode="normal" in2="BackgroundImageFix" result="effect1_dropShadow_152_220"/>
<feBlend mode="normal" in="SourceGraphic" in2="effect1_dropShadow_152_220" result="shape"/>
</filter>
<filter id="filter1_d_152_220" x="208" y="15" width="148" height="93" filterUnits="userSpaceOnUse" color-interpolation-filters="sRGB">
<feFlood flood-opacity="0" result="BackgroundImageFix"/>
<feColorMatrix in="SourceAlpha" type="matrix" values="0 0 0 0 0 0 0 0 0 0 0 0 0 0 0 0 0 0 127 0" result="hardAlpha"/>
<feOffset dy="4"/>
<feGaussianBlur stdDeviation="2"/>
<feComposite in2="hardAlpha" operator="out"/>
<feColorMatrix type="matrix" values="0 0 0 0 0 0 0 0 0 0 0 0 0 0 0 0 0 0 0.25 0"/>
<feBlend mode="normal" in2="BackgroundImageFix" result="effect1_dropShadow_152_220"/>
<feBlend mode="normal" in="SourceGraphic" in2="effect1_dropShadow_152_220" result="shape"/>
</filter>
</defs>
</svg>
