<svg width="16" height="16" viewBox="0 0 16 16" fill="none" xmlns="http://www.w3.org/2000/svg">
<rect x="0.5" y="0.5" width="15" height="15" rx="7.5" fill="#F3F67C"/>
<path d="M7.87535 7.28139C8.33357 7.40628 8.7138 7.53139 9.01602 7.65672C9.31824 7.78206 9.63602 7.95384 9.96935 8.17206C10.3027 8.39028 10.5578 8.66628 10.7347 9.00006C10.9116 9.33383 11 9.72961 11 10.1874C11 10.8332 10.7865 11.3592 10.3594 11.7654C9.93224 12.1716 9.36446 12.4372 8.65602 12.5621V13.9994H6.65602V12.5621C5.96846 12.4163 5.40068 12.1245 4.95268 11.6867C4.50468 11.2489 4.2598 10.6865 4.21802 9.99939H5.68668C5.77024 10.9367 6.42646 11.4054 7.65535 11.4054C8.30113 11.4054 8.76468 11.2856 9.04602 11.0461C9.32735 10.8065 9.46802 10.5305 9.46802 10.2181C9.46802 9.46783 8.80135 8.92606 7.46802 8.59272C5.38446 8.11361 4.34268 7.19695 4.34268 5.84272C4.34268 5.23872 4.56135 4.72317 4.99868 4.29606C5.43602 3.86895 5.98802 3.5825 6.65468 3.43672V1.99939H8.65468V3.46806C9.34224 3.63472 9.86824 3.94717 10.2327 4.40539C10.5971 4.86361 10.7898 5.39494 10.8107 5.99939H9.34202C9.30024 5.06206 8.7378 4.59339 7.65468 4.59339C7.11291 4.59339 6.68068 4.70806 6.35802 4.93739C6.03535 5.16672 5.8738 5.46872 5.87335 5.84339C5.87335 6.44739 6.54002 6.9265 7.87335 7.28072L7.87535 7.28139Z" fill="black"/>
<rect x="0.5" y="0.5" width="15" height="15" rx="7.5" stroke="black"/>
</svg>
