<svg width="52" height="38" viewBox="0 0 52 38" fill="none" xmlns="http://www.w3.org/2000/svg">
<path d="M22.7409 28.1995H29.3577M22.7409 28.1995H8.0894M22.7409 28.1995C22.7409 26.8483 22.7409 16.681 22.7409 9.04534M29.3577 28.1995H44.0093M29.3577 28.1995V9.04534M44.0093 28.1995H46.3724V37H5.25363V28.1995H8.0894M44.0093 28.1995L42.1187 21.7285M40.2282 15.2575L29.3577 9.04534M40.2282 15.2575L42.1187 21.7285M40.2282 15.2575C40.2282 15.2575 42.5915 7.49234 38.3378 2.31556C34.084 -2.86122 53.9345 10.0807 50.6261 15.2575C47.3176 20.4343 42.1187 21.7285 42.1187 21.7285M29.3577 9.04534V4.38622H22.7409C22.7409 5.7225 22.7409 7.31923 22.7409 9.04534M8.0894 28.1995L9.74361 21.7285M11.3978 15.2575L9.74361 21.7285M11.3978 15.2575C9.02158 10.2225 12.3431 2.83318 13.761 1.28015C15.1789 -0.27289 1.00003 4.9039 1 10.0807C0.999975 15.2575 9.74361 21.7285 9.74361 21.7285M11.3978 15.2575L16.5967 11.6337L22.7409 9.04534" stroke="black"/>
</svg>
