<svg width="33" height="43" viewBox="0 0 33 43" fill="none" xmlns="http://www.w3.org/2000/svg">
<path d="M13.9857 10.4382V7.13479M13.9857 7.13479H19.1714M13.9857 7.13479L12.5714 3.83146L13.9857 1H19.1714L20.5857 3.83142L19.1714 7.13479M19.1714 7.13479V10.4382" stroke="black"/>
<path d="M32.5 26.4831C32.5 35.3295 25.3361 42.5 16.5 42.5C7.66393 42.5 0.5 35.3295 0.5 26.4831C0.5 17.6368 7.66393 10.4663 16.5 10.4663C25.3361 10.4663 32.5 17.6368 32.5 26.4831Z" stroke="black"/>
<path d="M27.7857 26.4831C27.7857 32.7232 22.7324 37.7809 16.4999 37.7809C10.2675 37.7809 5.21423 32.7232 5.21423 26.4831C5.21423 20.2431 10.2675 15.1854 16.4999 15.1854C22.7324 15.1854 27.7857 20.2431 27.7857 26.4831Z" stroke="black"/>
</svg>
