<svg width="174" height="204" viewBox="0 0 174 204" fill="none" xmlns="http://www.w3.org/2000/svg">
<path d="M48.3294 169.698C45.6814 169.698 43.527 167.544 43.527 164.896V158.244C43.527 155.596 45.6814 153.442 48.3294 153.442H125.993C128.641 153.442 130.795 155.596 130.795 158.244V164.896C130.795 167.544 128.641 169.698 125.993 169.698H48.3294Z" fill="#D0AD9B"/>
<path d="M49.5433 152.224L49.577 151.933C49.8102 149.917 50.8116 148.099 52.3968 146.815C53.7666 145.703 55.4966 145.09 57.2678 145.09C58.3824 145.09 59.4576 145.321 60.4633 145.778C60.5415 145.813 60.6286 145.832 60.7149 145.832C60.7971 145.832 60.8769 145.817 60.9521 145.784C61.1081 145.718 61.2309 145.588 61.2888 145.428C62.3862 142.359 65.3159 140.296 68.5787 140.296C70.1845 140.296 71.7248 140.784 73.0329 141.706C73.1364 141.779 73.2579 141.817 73.3845 141.817C73.4494 141.817 73.5136 141.807 73.5754 141.787C73.7566 141.727 73.9017 141.58 73.9625 141.398C75.2941 137.362 79.0466 134.65 83.2999 134.65C85.98 134.65 88.4843 135.709 90.3513 137.632C90.4652 137.749 90.6245 137.816 90.7871 137.816C90.8359 137.816 90.8837 137.81 90.9307 137.799C91.1386 137.749 91.3074 137.591 91.37 137.386C92.6472 133.239 96.4239 130.453 100.767 130.453C105.733 130.453 109.928 134.165 110.525 139.086C110.548 139.277 110.662 139.447 110.829 139.542C110.921 139.594 111.025 139.621 111.129 139.621C111.216 139.621 111.299 139.604 111.377 139.568C112.641 139.004 113.987 138.718 115.383 138.718C117.79 138.718 120.106 139.598 121.904 141.194C124.008 143.059 125.214 145.74 125.214 148.549C125.214 149.759 124.997 150.939 124.569 152.056L124.505 152.224H49.5433" fill="#8FC23E"/>
<path d="M130.795 158.244V158.642C130.186 156.69 128.361 155.269 126.21 155.269H57.6149V153.442H125.993C128.641 153.442 130.795 155.596 130.795 158.244Z" fill="#E5C4B5"/>
<path d="M125.214 148.549C125.214 149.759 124.997 150.939 124.569 152.056L124.505 152.224H122.865L123.242 150.484C123.396 149.856 123.474 149.209 123.474 148.549C123.474 146.238 122.481 144.031 120.749 142.495C119.27 141.182 117.364 140.458 115.383 140.458C114.234 140.458 113.125 140.693 112.088 141.157C111.784 141.293 111.462 141.361 111.129 141.361C110.724 141.361 110.324 141.256 109.972 141.057C109.328 140.692 108.888 140.034 108.797 139.296C108.306 135.247 104.854 132.193 100.767 132.193C97.1921 132.193 94.0845 134.486 93.0335 137.898C92.7899 138.689 92.1391 139.298 91.3387 139.491C91.1586 139.534 90.9733 139.556 90.7872 139.556C90.1573 139.556 89.5439 139.297 89.1028 138.843C87.5664 137.262 85.5054 136.39 83.2999 136.39C79.7991 136.39 76.7106 138.622 75.6135 141.947C75.3812 142.647 74.8253 143.204 74.1188 143.44C73.8813 143.518 73.6342 143.557 73.3845 143.557C72.8965 143.557 72.4276 143.408 72.0308 143.128C71.0173 142.414 69.8236 142.036 68.5787 142.036C66.0487 142.036 63.778 143.635 62.9254 146.019C62.7036 146.633 62.232 147.132 61.6326 147.385C61.3411 147.51 61.0323 147.572 60.7147 147.572C60.3833 147.572 60.0483 147.5 59.7438 147.363C59.0704 147.057 58.3562 146.881 57.6149 146.841V145.099C58.6059 145.141 59.5629 145.369 60.4633 145.778C60.5416 145.813 60.6286 145.832 60.7147 145.832C60.7974 145.832 60.8766 145.817 60.9522 145.784C61.108 145.718 61.2307 145.588 61.2889 145.428C62.386 142.359 65.3162 140.296 68.5787 140.296C70.1847 140.296 71.7246 140.784 73.0331 141.706C73.1366 141.779 73.2575 141.817 73.3845 141.817C73.4498 141.817 73.5133 141.807 73.5751 141.787C73.7569 141.727 73.9022 141.58 73.9622 141.398C75.2942 137.362 79.0465 134.65 83.2999 134.65C85.9804 134.65 88.4843 135.709 90.3513 137.632C90.4653 137.749 90.6245 137.816 90.7872 137.816C90.8359 137.816 90.8837 137.81 90.9307 137.799C91.1386 137.749 91.3074 137.591 91.3701 137.386C92.6472 133.239 96.4239 130.453 100.767 130.453C105.733 130.453 109.928 134.165 110.525 139.086C110.548 139.277 110.662 139.447 110.829 139.542C110.921 139.594 111.025 139.621 111.129 139.621C111.216 139.621 111.299 139.604 111.377 139.568C112.641 139.004 113.987 138.718 115.383 138.718C117.79 138.718 120.106 139.598 121.904 141.194C124.008 143.059 125.214 145.74 125.214 148.549" fill="#AEDD54"/>
<path d="M52.622 95.7393L68.621 79.74H105.701L121.7 95.7393V139.472L121.299 139.218C119.528 138.094 117.483 137.5 115.383 137.5C114.185 137.5 113.01 137.69 111.889 138.064L111.614 138.155L111.551 137.873C110.44 132.867 105.904 129.235 100.767 129.235C98.357 129.235 96.0672 129.997 94.1445 131.44C92.6403 132.566 91.4379 134.076 90.6662 135.804L90.527 136.115L90.2625 135.899C88.2833 134.285 85.8753 133.432 83.2999 133.432C78.9172 133.432 74.9478 136.019 73.1876 140.022L73.0737 140.282L72.8247 140.147C71.5304 139.448 70.0622 139.078 68.5787 139.078C65.13 139.078 61.949 141.093 60.4748 144.211L60.3752 144.422L60.1546 144.347C59.2303 144.032 58.259 143.872 57.2678 143.872C55.7864 143.872 54.3131 144.245 53.0071 144.951L52.622 145.159V95.7393Z" fill="#AABFCF"/>
<path d="M121.7 95.7393V139.472L121.299 139.218C120.46 138.686 119.56 138.272 118.621 137.985V96.9225L102.623 80.9232L101.602 79.74H105.701L121.7 95.7393" fill="#CFDEE8"/>
<path d="M76.2086 79.74L73.6142 82.2195L57.6149 98.2188V143.879C57.5001 143.875 57.3835 143.872 57.2678 143.872C55.7862 143.872 54.3133 144.245 53.0074 144.951L52.622 145.159V95.7393L68.6213 79.74H76.2086Z" fill="#7D8F9E"/>
<path d="M130.793 165C130.79 165.163 130.778 165.323 130.759 165.481C130.754 165.521 130.749 165.56 130.743 165.599C130.738 165.639 130.731 165.678 130.724 165.717C130.711 165.794 130.696 165.872 130.678 165.948C130.67 165.987 130.661 166.025 130.651 166.063C130.632 166.139 130.611 166.214 130.589 166.288C130.577 166.325 130.566 166.362 130.554 166.399C130.53 166.472 130.504 166.545 130.476 166.617C130.462 166.653 130.448 166.689 130.433 166.724C130.418 166.76 130.403 166.796 130.388 166.83C130.375 166.86 130.361 166.89 130.348 166.918C130.313 166.993 130.276 167.068 130.236 167.141C130.183 167.242 130.126 167.341 130.065 167.438C130.042 167.476 130.018 167.513 129.994 167.549C129.934 167.64 129.87 167.727 129.805 167.813C129.781 167.843 129.758 167.873 129.734 167.902C129.711 167.932 129.687 167.961 129.662 167.99C129.515 168.164 129.356 168.328 129.186 168.479C129.158 168.504 129.13 168.529 129.1 168.554C129.072 168.578 129.043 168.603 129.013 168.626C128.984 168.651 128.954 168.674 128.924 168.697C128.893 168.721 128.863 168.744 128.832 168.766C128.802 168.789 128.771 168.811 128.74 168.832C128.677 168.876 128.614 168.918 128.549 168.958C128.517 168.979 128.485 168.999 128.452 169.019C128.422 169.038 128.39 169.056 128.359 169.073C128.352 169.078 128.345 169.081 128.338 169.086C128.31 169.101 128.282 169.117 128.253 169.132C128.22 169.15 128.185 169.167 128.151 169.185C128.117 169.202 128.083 169.219 128.048 169.235C128.014 169.252 127.979 169.268 127.943 169.284C127.908 169.3 127.874 169.314 127.838 169.329C127.802 169.344 127.767 169.359 127.731 169.373C127.694 169.387 127.659 169.4 127.622 169.414C127.586 169.427 127.549 169.44 127.512 169.452C127.481 169.462 127.451 169.472 127.419 169.481C127.382 169.494 127.344 169.505 127.306 169.515C127.279 169.523 127.253 169.53 127.226 169.537C126.832 169.642 126.419 169.698 125.993 169.698H48.3294C46.1788 169.698 44.3535 168.277 43.7445 166.325C43.6027 165.873 43.527 165.393 43.527 164.896V158.244C43.527 155.596 45.6811 153.442 48.3294 153.442H57.6149V157.579C57.6149 161.677 60.9375 165 65.0369 165H130.793Z" fill="#AF8F80"/>
<path d="M57.6149 145.099V152.224H49.5431L49.577 151.933C49.8101 149.916 50.8115 148.099 52.3967 146.815C53.7669 145.703 55.4965 145.09 57.2678 145.09C57.3313 145.09 57.3939 145.091 57.4574 145.093C57.5096 145.094 57.5627 145.096 57.6149 145.099Z" fill="#789B35"/>
<path d="M27.131 171.438C26.5074 171.438 26 170.931 26 170.307C26 169.683 26.5074 169.176 27.131 169.176H147.191C147.815 169.176 148.322 169.683 148.322 170.307C148.322 170.931 147.815 171.438 147.191 171.438H27.131Z" fill="#394D5C"/>
<path d="M148.061 170.307C148.061 170.787 147.671 171.177 147.191 171.177H27.131C26.6508 171.177 26.261 170.787 26.261 170.307C26.261 169.827 26.6508 169.437 27.131 169.437H147.191C147.671 169.437 148.061 169.827 148.061 170.307Z" fill="#394D5C"/>
<path d="M48.3294 153.964C45.9692 153.964 44.049 155.884 44.049 158.244V164.896C44.049 167.256 45.9692 169.176 48.3294 169.176H125.993C128.353 169.176 130.273 167.256 130.273 164.896V158.244C130.273 155.884 128.353 153.964 125.993 153.964H48.3294ZM48.3294 171.438C46.6409 171.438 45.0373 170.794 43.8139 169.626C42.5069 168.378 41.787 166.699 41.787 164.896V158.244C41.787 156.543 42.4388 154.931 43.6224 153.705C44.8028 152.482 46.3844 151.772 48.0759 151.707C48.1592 151.704 48.2438 151.702 48.3294 151.702H125.993C126.054 151.702 126.115 151.703 126.176 151.705C127.882 151.752 129.48 152.454 130.677 153.68C131.875 154.911 132.535 156.531 132.535 158.244V164.896C132.535 166.699 131.815 168.378 130.508 169.626C129.285 170.794 127.681 171.438 125.993 171.438H48.3294Z" fill="#394D5C"/>
<path d="M130.534 164.896C130.534 167.4 128.496 169.437 125.993 169.437H48.3294C45.8256 169.437 43.788 167.4 43.788 164.896V158.244C43.788 155.74 45.8256 153.703 48.3294 153.703H125.993C128.496 153.703 130.534 155.74 130.534 158.244V164.896ZM126.168 151.966C126.11 151.964 126.052 151.963 125.993 151.963H48.3294C48.2476 151.963 48.1667 151.965 48.0858 151.968C44.7346 152.096 42.048 154.862 42.048 158.244V164.896C42.048 166.68 42.7953 168.293 43.9942 169.437C45.1217 170.514 46.6503 171.177 48.3294 171.177H125.993C127.672 171.177 129.2 170.514 130.328 169.437C131.527 168.293 132.274 166.68 132.274 164.896V158.244C132.274 154.839 129.551 152.059 126.168 151.966Z" fill="#394D5C"/>
<path d="M51.752 153.964V151.702H122.57V153.964H51.752Z" fill="#394D5C"/>
<path d="M122.309 151.963V153.703H52.013V151.963H122.309Z" fill="#394D5C"/>
<path d="M50.882 146.603V95.487C50.882 95.1877 51.003 94.8963 51.2139 94.6866L67.5694 78.3315C67.7785 78.1209 68.0702 78 68.369 78H105.953C106.251 78 106.544 78.1209 106.753 78.3315L123.109 94.6875C123.319 94.8963 123.44 95.1886 123.44 95.487V140.999H121.178V95.9551L105.485 80.262H68.8373L53.144 95.9551V146.603H50.882Z" fill="#394D5C"/>
<path d="M123.179 95.487V140.738H121.439V95.8472L105.593 80.001H68.7292L52.883 95.8472V146.342H51.143V95.487C51.143 95.2565 51.2344 95.0346 51.3979 94.8719L67.7539 78.5159C67.9166 78.3524 68.1385 78.261 68.369 78.261H105.953C106.184 78.261 106.405 78.3524 106.568 78.5159L122.924 94.8719C123.088 95.0346 123.179 95.2565 123.179 95.487Z" fill="#394D5C"/>
<path d="M123.768 152.607L123.876 152.369C123.947 152.211 124.016 152.043 124.081 151.871C124.487 150.813 124.692 149.695 124.692 148.549C124.692 145.89 123.55 143.351 121.558 141.584C119.856 140.073 117.662 139.24 115.383 139.24C114.061 139.24 112.786 139.511 111.591 140.045C111.445 140.11 111.29 140.143 111.129 140.143C110.935 140.143 110.741 140.093 110.572 139.996C110.262 139.82 110.051 139.505 110.006 139.15C109.441 134.489 105.469 130.975 100.767 130.975C96.6544 130.975 93.0787 133.613 91.8694 137.539C91.752 137.92 91.4388 138.214 91.0525 138.307C90.9664 138.328 90.8768 138.338 90.7872 138.338C90.4844 138.338 90.1886 138.213 89.9772 137.995C88.2085 136.174 85.8376 135.172 83.2999 135.172C79.2724 135.172 75.7191 137.74 74.458 141.562C74.3456 141.901 74.077 142.169 73.7394 142.283C73.6239 142.32 73.5049 142.339 73.3845 142.339C73.1494 142.339 72.9238 142.268 72.7319 142.132C71.5126 141.273 70.0763 140.818 68.5787 140.818C65.5358 140.818 62.8036 142.742 61.7801 145.604C61.6727 145.902 61.4453 146.142 61.1559 146.265C61.0159 146.324 60.8676 146.354 60.7149 146.354C60.5527 146.354 60.3955 146.32 60.2478 146.253C59.31 145.828 58.3075 145.612 57.2678 145.612C55.616 145.612 54.003 146.184 52.7256 147.221C51.247 148.418 50.3129 150.113 50.0955 151.994C50.0632 152.267 50.0468 152.549 50.0468 152.833V153.094H47.7848V152.833C47.7848 152.532 47.7986 152.233 47.826 151.944C48.0494 149.547 49.1658 147.345 50.9698 145.745C51.0737 145.652 51.1854 145.557 51.3014 145.463C51.7559 145.094 52.2465 144.767 52.7593 144.492C54.1408 143.745 55.7001 143.35 57.2678 143.35C58.2385 143.35 59.1914 143.495 60.104 143.782C61.705 140.599 65.006 138.556 68.5787 138.556C70.0546 138.556 71.5166 138.902 72.825 139.559C74.7223 135.51 78.8035 132.91 83.2999 132.91C85.8841 132.91 88.3077 133.73 90.3304 135.288C91.1404 133.605 92.3453 132.136 93.8313 131.022C95.8445 129.512 98.2431 128.713 100.767 128.713C103.398 128.713 105.976 129.623 108.027 131.275C109.99 132.857 111.391 135.052 111.996 137.481C113.087 137.148 114.225 136.978 115.383 136.978C117.582 136.978 119.724 137.6 121.579 138.777C122.096 139.104 122.594 139.48 123.06 139.892C123.162 139.982 123.263 140.075 123.359 140.168C125.644 142.342 126.954 145.397 126.954 148.549C126.954 149.745 126.773 150.922 126.417 152.045C126.285 152.462 126.124 152.884 125.939 153.297L125.832 153.535L123.768 152.607" fill="#394D5C"/>
<path d="M126.693 148.549C126.693 149.722 126.517 150.866 126.168 151.966C126.037 152.381 125.88 152.789 125.7 153.19L124.113 152.476C124.19 152.307 124.26 152.135 124.326 151.963C124.742 150.875 124.953 149.729 124.953 148.549C124.953 145.815 123.778 143.205 121.731 141.389C119.981 139.835 117.726 138.979 115.383 138.979C114.025 138.979 112.713 139.258 111.484 139.807C111.232 139.92 110.942 139.906 110.701 139.769C110.46 139.633 110.3 139.392 110.266 139.118C109.684 134.326 105.601 130.714 100.767 130.714C96.5396 130.714 92.863 133.426 91.6198 137.463C91.5293 137.757 91.29 137.981 90.9916 138.053C90.6923 138.125 90.3783 138.033 90.1642 137.813C88.3468 135.942 85.9091 134.911 83.2999 134.911C79.1596 134.911 75.5065 137.552 74.2102 141.48C74.1232 141.742 73.9179 141.948 73.6569 142.035C73.395 142.121 73.1079 142.078 72.8826 141.919C71.6185 141.028 70.1299 140.557 68.5787 140.557C65.4258 140.557 62.5948 142.551 61.5343 145.516C61.4516 145.745 61.2776 145.93 61.054 146.024C60.8305 146.119 60.5764 146.116 60.3554 146.016C59.3836 145.575 58.3449 145.351 57.2678 145.351C55.5574 145.351 53.8852 145.943 52.5611 147.018C51.0247 148.262 50.0599 150.03 49.8363 151.963C49.8023 152.25 49.7858 152.54 49.7858 152.833H48.0458C48.0458 152.542 48.0589 152.254 48.0858 151.968C48.3025 149.644 49.3856 147.499 51.143 145.94C51.2483 145.846 51.3562 145.755 51.4658 145.666C51.9086 145.307 52.3836 144.99 52.883 144.721C54.2211 143.998 55.7314 143.611 57.2678 143.611C58.2909 143.611 59.2871 143.775 60.2389 144.1C61.7483 140.907 64.9951 138.817 68.5787 138.817C70.1203 138.817 71.6115 139.195 72.9487 139.917C74.7409 135.841 78.7742 133.171 83.2999 133.171C85.9343 133.171 88.4199 134.06 90.4279 135.698C91.2109 133.944 92.4436 132.388 93.9879 131.231C95.9558 129.755 98.3005 128.974 100.767 128.974C106.106 128.974 110.671 132.705 111.806 137.816C112.954 137.433 114.153 137.239 115.383 137.239C117.543 137.239 119.639 137.855 121.439 138.997C121.947 139.319 122.431 139.684 122.887 140.088C122.986 140.175 123.083 140.265 123.179 140.356C125.417 142.486 126.693 145.449 126.693 148.549" fill="#394D5C"/>
<path d="M68.1937 139.335L72.5575 134.844L72.4987 135.21L70.524 130.45L70.5198 130.439C70.4896 130.367 70.5118 130.285 70.5688 130.237L75.329 126.198L70.8158 130.511L70.8606 130.298L73.1132 134.934C73.171 135.053 73.1489 135.19 73.0677 135.284L73.0544 135.3L68.9636 140.04L68.1937 139.335" fill="#394D5C"/>
<path d="M110.034 82.6058L111.833 94.316L111.835 94.3264C111.845 94.3873 111.827 94.4465 111.792 94.4908L108.105 99.275L108.118 99.2106L108.737 102.36L107.964 99.2454C107.958 99.2236 107.963 99.2019 107.975 99.1845L107.977 99.181L111.424 94.2211L111.383 94.396L109.006 82.7902L110.034 82.6058" fill="#394D5C"/>
<path d="M61.2759 86.6817L62.0693 95.8741L61.8962 95.6679L69.6565 98.2518L61.7552 96.1377C61.6622 96.1125 61.5974 96.0351 61.5841 95.9455L61.582 95.9315L60.2389 86.8026L61.2759 86.6817" fill="#394D5C"/>
<path d="M72.8999 110.175H74.6428C74.8314 110.175 75.1963 110.114 75.7378 109.992C76.0116 109.938 76.2352 109.798 76.4086 109.573C76.582 109.348 76.6687 109.089 76.6687 108.797C76.6687 108.366 76.5318 108.034 76.258 107.803C75.9842 107.571 75.4701 107.456 74.7158 107.456H72.8999V110.175ZM68.7478 118.132V104.754H75.6375C76.9151 104.754 77.8914 104.864 78.5667 105.083C79.242 105.302 79.7865 105.709 80.2001 106.301C80.6138 106.894 80.8207 107.617 80.8207 108.468C80.8207 109.211 80.6625 109.852 80.3459 110.389C80.0294 110.928 79.5941 111.364 79.0403 111.699C78.6872 111.912 78.2032 112.088 77.5885 112.228C78.0808 112.393 78.4395 112.557 78.6646 112.722C78.8166 112.831 79.0368 113.065 79.3258 113.425C79.6145 113.784 79.8075 114.061 79.9048 114.256L81.9066 118.132H77.2357L75.0261 114.044C74.7462 113.515 74.4968 113.171 74.2778 113.013C73.9796 112.806 73.6421 112.703 73.2649 112.703H72.8999V118.132H68.7478" fill="#394D5C"/>
<path d="M85.2629 104.754H89.4056V118.132H85.2629V104.754Z" fill="#394D5C"/>
<path d="M98.3744 110.458H99.3871C100.184 110.458 100.743 110.32 101.066 110.043C101.389 109.766 101.55 109.412 101.55 108.98C101.55 108.56 101.41 108.204 101.13 107.912C100.85 107.62 100.324 107.474 99.5515 107.474H98.3744V110.458ZM94.2219 104.754H101.094C102.59 104.754 103.711 105.111 104.457 105.823C105.201 106.534 105.575 107.547 105.575 108.861C105.575 110.212 105.168 111.267 104.356 112.027C103.544 112.788 102.304 113.168 100.637 113.168H98.3744V118.132H94.2219V104.754" fill="#394D5C"/>
</svg>
