<svg width="174" height="204" viewBox="0 0 174 204" fill="none" xmlns="http://www.w3.org/2000/svg">
<path d="M48.3294 169.698C45.6814 169.698 43.527 167.544 43.527 164.896V158.244C43.527 155.596 45.6814 153.442 48.3294 153.442H125.993C128.641 153.442 130.795 155.596 130.795 158.244V164.896C130.795 167.544 128.641 169.698 125.993 169.698H48.3294Z" fill="#AABFCF"/>
<path d="M130.795 158.244V158.642C130.186 156.69 128.361 155.269 126.21 155.269H57.6149V153.442H125.993C128.641 153.442 130.795 155.596 130.795 158.244Z" fill="#AABFCF"/>
<path d="M53 98.098L68.981 80H106.019L122 98.098V147.568L121.599 147.279C119.831 146.009 117.788 145.337 115.69 145.337C114.493 145.337 113.319 145.551 112.2 145.974L111.925 146.078L111.863 145.758C110.752 140.096 106.222 135.988 101.091 135.988C98.6834 135.988 96.3961 136.85 94.4756 138.481C92.9731 139.756 91.7721 141.463 91.0013 143.418L90.8622 143.77L90.598 143.526C88.621 141.7 86.2158 140.735 83.6433 140.735C79.2655 140.735 75.3006 143.661 73.5424 148.19L73.4286 148.483L73.1799 148.33C71.8871 147.54 70.4205 147.122 68.9387 147.122C65.4939 147.122 62.3165 149.401 60.8439 152.928L60.7444 153.166L60.5241 153.082C59.6008 152.726 58.6306 152.544 57.6406 152.544C56.1609 152.544 54.6892 152.967 53.3846 153.765L53 154V98.098Z" fill="#AABFCF"/>
<path d="M121.7 95.7393V139.472L121.299 139.218C120.46 138.686 119.56 138.272 118.621 137.985V96.9225L102.623 80.9232L101.602 79.74H105.701L121.7 95.7393Z" fill="#CFDEE8"/>
<path d="M76.2086 79.74L73.6142 82.2195L57.6149 98.2188V143.879C57.5001 143.875 57.3835 143.872 57.2678 143.872C55.7862 143.872 54.3133 144.245 53.0074 144.951L52.622 145.159V95.7393L68.6213 79.74H76.2086Z" fill="#7D8F9E"/>
<path d="M27.131 171.438C26.5074 171.438 26 170.931 26 170.307C26 169.683 26.5074 169.176 27.131 169.176H147.191C147.815 169.176 148.322 169.683 148.322 170.307C148.322 170.931 147.815 171.438 147.191 171.438H27.131Z" fill="#394D5C"/>
<path d="M50.882 146.603V95.487C50.882 95.1877 51.003 94.8963 51.2139 94.6866L67.5694 78.3315C67.7785 78.1209 68.0702 78 68.369 78H105.953C106.251 78 106.544 78.1209 106.753 78.3315L123.109 94.6875C123.319 94.8963 123.44 95.1886 123.44 95.487V140.999H121.178V95.9551L105.485 80.262H68.8373L53.144 95.9551V146.603H50.882Z" fill="#394D5C"/>
<path d="M123 98.7478V153.251H121.261V99.1816L105.423 80.0957H68.5774L52.7391 99.1816V160H51V98.7478C51 98.4701 51.0913 98.2029 51.2548 98.007L67.6026 78.307C67.7652 78.11 67.987 78 68.2174 78H105.783C106.013 78 106.235 78.11 106.397 78.307L122.745 98.007C122.909 98.2029 123 98.4701 123 98.7478Z" fill="#394D5C"/>
<path d="M48.3294 153.964C45.9692 153.964 44.049 155.884 44.049 158.244V164.896C44.049 167.256 45.9692 169.176 48.3294 169.176H125.993C128.353 169.176 130.273 167.256 130.273 164.896V158.244C130.273 155.884 128.353 153.964 125.993 153.964H48.3294ZM48.3294 171.438C46.6409 171.438 45.0373 170.794 43.8139 169.626C42.5069 168.378 41.787 166.699 41.787 164.896V158.244C41.787 156.543 42.4388 154.931 43.6224 153.705C44.8028 152.482 46.3844 151.772 48.0759 151.707C48.1592 151.704 48.2438 151.702 48.3294 151.702H125.993C126.054 151.702 126.115 151.703 126.176 151.705C127.882 151.752 129.48 152.454 130.677 153.68C131.875 154.911 132.535 156.531 132.535 158.244V164.896C132.535 166.699 131.815 168.378 130.508 169.626C129.285 170.794 127.681 171.438 125.993 171.438H48.3294Z" fill="#394D5C"/>
<path d="M130.793 165C130.79 165.163 130.778 165.323 130.759 165.481C130.754 165.521 130.749 165.56 130.743 165.599C130.738 165.639 130.731 165.678 130.724 165.717C130.711 165.794 130.696 165.872 130.678 165.948C130.67 165.987 130.661 166.025 130.651 166.063C130.632 166.139 130.611 166.214 130.589 166.288C130.577 166.325 130.566 166.362 130.554 166.399C130.53 166.472 130.504 166.545 130.476 166.617C130.462 166.653 130.448 166.689 130.433 166.724C130.418 166.76 130.403 166.796 130.388 166.83C130.375 166.86 130.361 166.89 130.348 166.918C130.313 166.993 130.276 167.068 130.236 167.141C130.183 167.242 130.126 167.341 130.065 167.438C130.042 167.476 130.018 167.513 129.994 167.549C129.934 167.64 129.87 167.727 129.805 167.813C129.781 167.843 129.758 167.873 129.734 167.902C129.711 167.932 129.687 167.961 129.662 167.99C129.515 168.164 129.356 168.328 129.186 168.479C129.158 168.504 129.13 168.529 129.1 168.554C129.072 168.578 129.043 168.603 129.013 168.626C128.984 168.651 128.954 168.674 128.924 168.697C128.893 168.721 128.863 168.744 128.832 168.766C128.802 168.789 128.771 168.811 128.74 168.832C128.677 168.876 128.614 168.918 128.549 168.958C128.517 168.979 128.485 168.999 128.452 169.019C128.422 169.038 128.39 169.056 128.359 169.073C128.352 169.078 128.345 169.081 128.338 169.086C128.31 169.101 128.282 169.117 128.253 169.132C128.22 169.15 128.185 169.167 128.151 169.185C128.117 169.202 128.083 169.219 128.048 169.235C128.014 169.252 127.979 169.268 127.943 169.284C127.908 169.3 127.874 169.314 127.838 169.329C127.802 169.344 127.767 169.359 127.731 169.373C127.694 169.387 127.659 169.4 127.622 169.414C127.586 169.427 127.549 169.44 127.512 169.452C127.481 169.462 127.451 169.472 127.419 169.481C127.382 169.494 127.344 169.505 127.306 169.515C127.279 169.523 127.253 169.53 127.226 169.537C126.832 169.642 126.419 169.698 125.993 169.698H48.3294C46.1788 169.698 44.3535 168.277 43.7445 166.325C43.6027 165.873 43.527 165.393 43.527 164.896V158.244C43.527 155.596 45.6811 153.442 48.3294 153.442H57.6149V157.579C57.6149 161.677 60.9375 165 65.0369 165H130.793Z" fill="#7D8F9E"/>
<path d="M148.061 170.307C148.061 170.787 147.671 171.177 147.191 171.177H27.131C26.6508 171.177 26.261 170.787 26.261 170.307C26.261 169.827 26.6508 169.437 27.131 169.437H147.191C147.671 169.437 148.061 169.827 148.061 170.307Z" fill="#394D5C"/>
<path d="M51.752 153.964V151.702H122.57V153.964H51.752Z" fill="#394D5C"/>
<path d="M122.309 151.963V153.703H52.013V151.963H122.309Z" fill="#394D5C"/>
<path d="M130.534 164.896C130.534 167.4 128.496 169.437 125.993 169.437H48.3294C45.8256 169.437 43.788 167.4 43.788 164.896V158.244C43.788 155.74 45.8256 153.703 48.3294 153.703H125.993C128.496 153.703 130.534 155.74 130.534 158.244V164.896ZM126.168 151.966C126.11 151.964 126.052 151.963 125.993 151.963H48.3294C48.2476 151.963 48.1667 151.965 48.0858 151.968C44.7346 152.096 42.048 154.862 42.048 158.244V164.896C42.048 166.68 42.7953 168.293 43.9942 169.437C45.1217 170.514 46.6503 171.177 48.3294 171.177H125.993C127.672 171.177 129.2 170.514 130.328 169.437C131.527 168.293 132.274 166.68 132.274 164.896V158.244C132.274 154.839 129.551 152.059 126.168 151.966Z" fill="#394D5C"/>
<path d="M68.1937 139.335L72.5575 134.844L72.4987 135.21L70.524 130.45L70.5198 130.439C70.4896 130.367 70.5118 130.285 70.5688 130.237L75.329 126.198L70.8158 130.511L70.8606 130.298L73.1132 134.934C73.171 135.053 73.1489 135.19 73.0677 135.284L73.0544 135.3L68.9636 140.04L68.1937 139.335Z" fill="#394D5C"/>
<path d="M110.034 82.6058L111.833 94.316L111.835 94.3264C111.845 94.3873 111.827 94.4465 111.792 94.4908L108.105 99.275L108.118 99.2106L108.737 102.36L107.964 99.2454C107.958 99.2236 107.963 99.2019 107.975 99.1845L107.977 99.181L111.424 94.2211L111.383 94.396L109.006 82.7902L110.034 82.6058Z" fill="#394D5C"/>
<path d="M61.2759 86.6817L62.0693 95.8741L61.8962 95.6679L69.6565 98.2518L61.7553 96.1377C61.6622 96.1125 61.5974 96.0351 61.5841 95.9455L61.582 95.9315L60.2389 86.8026L61.2759 86.6817Z" fill="#394D5C"/>
<path d="M72.8999 110.175H74.6428C74.8314 110.175 75.1963 110.114 75.7378 109.992C76.0116 109.938 76.2352 109.798 76.4086 109.573C76.582 109.348 76.6687 109.089 76.6687 108.797C76.6687 108.366 76.5318 108.034 76.258 107.803C75.9842 107.571 75.4701 107.456 74.7158 107.456H72.8999V110.175ZM68.7478 118.132V104.754H75.6375C76.9151 104.754 77.8914 104.864 78.5667 105.083C79.242 105.302 79.7865 105.709 80.2001 106.301C80.6138 106.894 80.8207 107.617 80.8207 108.468C80.8207 109.211 80.6625 109.852 80.3459 110.389C80.0294 110.928 79.5941 111.364 79.0403 111.699C78.6872 111.912 78.2032 112.088 77.5885 112.228C78.0808 112.393 78.4395 112.557 78.6646 112.722C78.8166 112.831 79.0368 113.065 79.3258 113.425C79.6145 113.784 79.8075 114.061 79.9048 114.256L81.9066 118.132H77.2357L75.0261 114.044C74.7462 113.515 74.4968 113.171 74.2778 113.013C73.9796 112.806 73.6421 112.703 73.2649 112.703H72.8999V118.132H68.7478Z" fill="#394D5C"/>
<path d="M85.2629 104.754H89.4056V118.132H85.2629V104.754Z" fill="#394D5C"/>
<path d="M98.3744 110.458H99.3871C100.184 110.458 100.743 110.32 101.066 110.043C101.389 109.766 101.55 109.412 101.55 108.98C101.55 108.56 101.41 108.204 101.13 107.912C100.85 107.62 100.324 107.474 99.5515 107.474H98.3744V110.458ZM94.2219 104.754H101.094C102.59 104.754 103.711 105.111 104.457 105.823C105.201 106.534 105.575 107.547 105.575 108.861C105.575 110.212 105.168 111.267 104.356 112.027C103.544 112.788 102.304 113.168 100.637 113.168H98.3744V118.132H94.2219V104.754Z" fill="#394D5C"/>
<rect x="53" y="145" width="68" height="7" fill="#AABFCF"/>
<rect x="72" y="139" width="47" height="13" fill="#AABFCF"/>
<rect x="82" y="133" width="39" height="19" fill="#AABFCF"/>
</svg>
