<svg width="174" height="174" viewBox="0 0 174 174" fill="none" xmlns="http://www.w3.org/2000/svg">
<path d="M48.3294 131.698C45.6814 131.698 43.527 129.544 43.527 126.896V120.244C43.527 117.596 45.6814 115.442 48.3294 115.442H125.993C128.641 115.442 130.795 117.596 130.795 120.244V126.896C130.795 129.544 128.641 131.698 125.993 131.698H48.3294Z" fill="#D0AD9B"/>
<path d="M49.5433 114.224L49.577 113.933C49.8103 111.917 50.8116 110.099 52.3968 108.815C53.7666 107.703 55.4966 107.09 57.2678 107.09C58.3824 107.09 59.4576 107.321 60.4633 107.778C60.5415 107.813 60.6286 107.832 60.7149 107.832C60.7971 107.832 60.8769 107.817 60.9521 107.784C61.1082 107.718 61.2309 107.588 61.2888 107.428C62.3862 104.359 65.3159 102.296 68.5787 102.296C70.1845 102.296 71.7248 102.784 73.0329 103.706C73.1364 103.779 73.2579 103.817 73.3845 103.817C73.4494 103.817 73.5136 103.807 73.5754 103.787C73.7567 103.727 73.9018 103.58 73.9625 103.398C75.2941 99.3619 79.0466 96.6501 83.2999 96.6501C85.98 96.6501 88.4843 97.7089 90.3513 99.6316C90.4653 99.749 90.6245 99.816 90.7872 99.816C90.8359 99.816 90.8837 99.8099 90.9307 99.7986C91.1386 99.749 91.3074 99.5907 91.3701 99.3862C92.6472 95.2389 96.4239 92.4532 100.767 92.4532C105.733 92.4532 109.928 96.1646 110.525 101.086C110.548 101.277 110.662 101.447 110.829 101.542C110.921 101.594 111.025 101.621 111.129 101.621C111.216 101.621 111.299 101.604 111.377 101.568C112.641 101.004 113.987 100.718 115.383 100.718C117.79 100.718 120.106 101.598 121.904 103.194C124.008 105.059 125.214 107.74 125.214 110.549C125.214 111.759 124.997 112.939 124.569 114.056L124.505 114.224H49.5433" fill="#8FC23E"/>
<path d="M130.795 120.244V120.642C130.186 118.69 128.361 117.269 126.21 117.269H57.6149V115.442H125.993C128.641 115.442 130.795 117.596 130.795 120.244Z" fill="#E5C4B5"/>
<path d="M125.214 110.549C125.214 111.759 124.997 112.939 124.569 114.056L124.505 114.224H122.865L123.242 112.484C123.396 111.856 123.474 111.209 123.474 110.549C123.474 108.238 122.481 106.031 120.749 104.495C119.27 103.182 117.364 102.458 115.383 102.458C114.234 102.458 113.125 102.693 112.088 103.157C111.784 103.293 111.462 103.361 111.129 103.361C110.724 103.361 110.324 103.256 109.972 103.057C109.328 102.692 108.888 102.034 108.797 101.296C108.306 97.2469 104.854 94.1932 100.767 94.1932C97.1921 94.1932 94.0845 96.4856 93.0335 99.8978C92.7899 100.689 92.1391 101.298 91.3387 101.491C91.1586 101.534 90.9733 101.556 90.7872 101.556C90.1573 101.556 89.5439 101.297 89.1028 100.843C87.5664 99.2618 85.5054 98.3901 83.2999 98.3901C79.7991 98.3901 76.7106 100.622 75.6135 103.947C75.3812 104.647 74.8253 105.204 74.1188 105.44C73.8813 105.518 73.6342 105.557 73.3845 105.557C72.8965 105.557 72.4276 105.408 72.0308 105.128C71.0173 104.414 69.8236 104.036 68.5787 104.036C66.0487 104.036 63.778 105.635 62.9254 108.019C62.7036 108.633 62.232 109.132 61.6326 109.385C61.3411 109.51 61.0323 109.572 60.7147 109.572C60.3833 109.572 60.0483 109.5 59.7438 109.363C59.0704 109.057 58.3562 108.881 57.6149 108.841V107.099C58.6059 107.141 59.5629 107.369 60.4633 107.778C60.5416 107.813 60.6286 107.832 60.7147 107.832C60.7974 107.832 60.8766 107.817 60.9522 107.784C61.108 107.718 61.2307 107.588 61.2889 107.428C62.386 104.359 65.3162 102.296 68.5787 102.296C70.1847 102.296 71.7246 102.784 73.0331 103.706C73.1366 103.779 73.2575 103.817 73.3845 103.817C73.4498 103.817 73.5133 103.807 73.5751 103.787C73.7569 103.727 73.9022 103.58 73.9622 103.398C75.2942 99.3619 79.0465 96.6501 83.2999 96.6501C85.9804 96.6501 88.4843 97.7089 90.3513 99.6316C90.4653 99.749 90.6245 99.816 90.7872 99.816C90.8359 99.816 90.8837 99.8099 90.9307 99.7986C91.1386 99.749 91.3074 99.5907 91.3701 99.3862C92.6472 95.2389 96.4239 92.4532 100.767 92.4532C105.733 92.4532 109.928 96.1646 110.525 101.086C110.548 101.277 110.662 101.447 110.829 101.542C110.921 101.594 111.025 101.621 111.129 101.621C111.216 101.621 111.299 101.604 111.377 101.568C112.641 101.004 113.987 100.718 115.383 100.718C117.79 100.718 120.106 101.598 121.904 103.194C124.008 105.059 125.214 107.74 125.214 110.549" fill="#AEDD54"/>
<path d="M52.622 57.7393L68.621 41.74H105.701L121.7 57.7393V101.472L121.299 101.218C119.528 100.094 117.483 99.5001 115.383 99.5001C114.185 99.5001 113.01 99.6898 111.889 100.064L111.614 100.155L111.551 99.8725C110.44 94.8674 105.904 91.2351 100.767 91.2351C98.357 91.2351 96.0672 91.9973 94.1445 93.4397C92.6403 94.5664 91.4379 96.0758 90.6662 97.8036L90.527 98.1151L90.2626 97.8993C88.2833 96.2855 85.8753 95.432 83.2999 95.432C78.9172 95.432 74.9479 98.0185 73.1876 102.022L73.0737 102.282L72.8247 102.147C71.5304 101.448 70.0622 101.078 68.5787 101.078C65.13 101.078 61.949 103.093 60.4748 106.211L60.3752 106.422L60.1546 106.347C59.2303 106.032 58.259 105.872 57.2678 105.872C55.7865 105.872 54.3131 106.245 53.0071 106.951L52.622 107.159V57.7393Z" fill="#AABFCF"/>
<path d="M121.7 57.7393V101.472L121.299 101.218C120.46 100.686 119.56 100.272 118.621 99.9848V58.9225L102.623 42.9232L101.602 41.74H105.701L121.7 57.7393" fill="#CFDEE8"/>
<path d="M76.2086 41.74L73.6142 44.2195L57.6149 60.2188V105.879C57.5001 105.875 57.3835 105.872 57.2678 105.872C55.7862 105.872 54.3133 106.245 53.0074 106.951L52.622 107.159V57.7393L68.6213 41.74H76.2086Z" fill="#7D8F9E"/>
<path d="M130.793 127C130.79 127.163 130.778 127.323 130.759 127.481C130.754 127.521 130.749 127.56 130.743 127.599C130.738 127.639 130.731 127.678 130.725 127.717C130.711 127.794 130.696 127.872 130.678 127.948C130.67 127.987 130.661 128.025 130.651 128.063C130.632 128.139 130.611 128.214 130.589 128.288C130.577 128.325 130.566 128.362 130.554 128.399C130.53 128.472 130.504 128.545 130.476 128.617C130.462 128.653 130.448 128.689 130.433 128.724C130.418 128.76 130.403 128.796 130.388 128.83C130.375 128.86 130.361 128.89 130.348 128.918C130.313 128.993 130.276 129.068 130.236 129.141C130.183 129.242 130.126 129.341 130.065 129.438C130.042 129.476 130.018 129.513 129.994 129.549C129.934 129.64 129.87 129.727 129.805 129.813C129.781 129.843 129.758 129.873 129.734 129.902C129.711 129.932 129.687 129.961 129.662 129.99C129.515 130.164 129.356 130.328 129.186 130.479C129.158 130.504 129.13 130.529 129.1 130.554C129.072 130.578 129.043 130.603 129.013 130.626C128.984 130.651 128.954 130.674 128.924 130.697C128.893 130.721 128.863 130.744 128.832 130.766C128.802 130.789 128.771 130.811 128.74 130.832C128.677 130.876 128.614 130.918 128.55 130.958C128.517 130.979 128.485 130.999 128.452 131.019C128.422 131.038 128.39 131.056 128.359 131.073C128.352 131.078 128.345 131.081 128.338 131.086C128.31 131.101 128.282 131.117 128.253 131.132C128.22 131.15 128.185 131.167 128.151 131.185C128.117 131.202 128.083 131.219 128.048 131.235C128.014 131.252 127.979 131.268 127.943 131.284C127.908 131.3 127.874 131.314 127.838 131.329C127.802 131.344 127.767 131.359 127.731 131.373C127.694 131.387 127.659 131.4 127.622 131.414C127.586 131.427 127.549 131.44 127.512 131.452C127.481 131.462 127.451 131.472 127.419 131.481C127.382 131.494 127.344 131.505 127.306 131.515C127.279 131.523 127.253 131.53 127.226 131.537C126.832 131.642 126.419 131.698 125.993 131.698H48.3294C46.1788 131.698 44.3535 130.277 43.7445 128.325C43.6027 127.873 43.527 127.393 43.527 126.896V120.244C43.527 117.596 45.6812 115.442 48.3294 115.442H57.6149V119.579C57.6149 123.677 60.9375 127 65.0369 127H130.793Z" fill="#AF8F80"/>
<path d="M57.6149 107.099V114.224H49.5431L49.577 113.933C49.8102 111.916 50.8116 110.099 52.3967 108.815C53.7669 107.703 55.4965 107.09 57.2678 107.09C57.3313 107.09 57.394 107.091 57.4575 107.093C57.5097 107.094 57.5627 107.096 57.6149 107.099Z" fill="#789B35"/>
<path d="M27.131 133.438C26.5074 133.438 26 132.931 26 132.307C26 131.683 26.5074 131.176 27.131 131.176H147.191C147.815 131.176 148.322 131.683 148.322 132.307C148.322 132.931 147.815 133.438 147.191 133.438H27.131Z" fill="#394D5C"/>
<path d="M148.061 132.307C148.061 132.787 147.671 133.177 147.191 133.177H27.131C26.6507 133.177 26.261 132.787 26.261 132.307C26.261 131.827 26.6507 131.437 27.131 131.437H147.191C147.671 131.437 148.061 131.827 148.061 132.307Z" fill="#394D5C"/>
<path d="M48.3294 115.964C45.9692 115.964 44.049 117.884 44.049 120.244V126.896C44.049 129.256 45.9692 131.176 48.3294 131.176H125.993C128.353 131.176 130.273 129.256 130.273 126.896V120.244C130.273 117.884 128.353 115.964 125.993 115.964H48.3294ZM48.3294 133.438C46.641 133.438 45.0374 132.794 43.814 131.626C42.5069 130.378 41.787 128.699 41.787 126.896V120.244C41.787 118.543 42.4389 116.931 43.6224 115.705C44.8028 114.482 46.3845 113.772 48.0759 113.707C48.1593 113.704 48.2438 113.702 48.3294 113.702H125.993C126.054 113.702 126.115 113.703 126.176 113.705C127.882 113.752 129.48 114.454 130.677 115.68C131.875 116.911 132.535 118.531 132.535 120.244V126.896C132.535 128.699 131.816 130.378 130.508 131.626C129.285 132.794 127.681 133.438 125.993 133.438H48.3294Z" fill="#394D5C"/>
<path d="M130.534 126.896C130.534 129.4 128.496 131.437 125.993 131.437H48.3294C45.8256 131.437 43.788 129.4 43.788 126.896V120.244C43.788 117.74 45.8256 115.703 48.3294 115.703H125.993C128.496 115.703 130.534 117.74 130.534 120.244V126.896ZM126.168 113.966C126.11 113.964 126.052 113.963 125.993 113.963H48.3294C48.2477 113.963 48.1667 113.965 48.0858 113.968C44.7346 114.096 42.048 116.862 42.048 120.244V126.896C42.048 128.68 42.7954 130.293 43.9942 131.437C45.1217 132.514 46.6503 133.177 48.3294 133.177H125.993C127.672 133.177 129.2 132.514 130.328 131.437C131.527 130.293 132.274 128.68 132.274 126.896V120.244C132.274 116.839 129.551 114.059 126.168 113.966Z" fill="#394D5C"/>
<path d="M51.752 115.964V113.702H122.57V115.964H51.752Z" fill="#394D5C"/>
<path d="M122.309 113.963V115.703H52.013V113.963H122.309Z" fill="#394D5C"/>
<path d="M50.882 108.603V57.487C50.882 57.1877 51.003 56.8963 51.2139 56.6866L67.5694 40.3315C67.7785 40.1209 68.0702 40 68.369 40H105.953C106.251 40 106.544 40.1209 106.753 40.3315L123.109 56.6875C123.319 56.8963 123.44 57.1886 123.44 57.487V102.999H121.178V57.9551L105.485 42.262H68.8373L53.144 57.9551V108.603H50.882Z" fill="#394D5C"/>
<path d="M123.179 57.487V102.738H121.439V57.8472L105.593 42.001H68.7292L52.883 57.8472V108.342H51.143V57.487C51.143 57.2565 51.2344 57.0346 51.3979 56.8719L67.7539 40.5159C67.9166 40.3524 68.1385 40.261 68.369 40.261H105.953C106.184 40.261 106.405 40.3524 106.568 40.5159L122.924 56.8719C123.088 57.0346 123.179 57.2565 123.179 57.487Z" fill="#394D5C"/>
<path d="M123.768 114.607L123.876 114.369C123.947 114.211 124.016 114.043 124.081 113.871C124.487 112.813 124.692 111.695 124.692 110.549C124.692 107.89 123.55 105.351 121.558 103.584C119.856 102.073 117.662 101.24 115.383 101.24C114.061 101.24 112.786 101.511 111.591 102.045C111.445 102.11 111.29 102.143 111.129 102.143C110.935 102.143 110.741 102.093 110.572 101.996C110.262 101.82 110.051 101.505 110.006 101.15C109.441 96.4891 105.469 92.9752 100.767 92.9752C96.6544 92.9752 93.0787 95.613 91.8694 99.5393C91.752 99.9204 91.4388 100.214 91.0525 100.307C90.9664 100.328 90.8768 100.338 90.7871 100.338C90.4844 100.338 90.1886 100.213 89.9772 99.9952C88.2085 98.1743 85.8376 97.1721 83.2999 97.1721C79.2724 97.1721 75.7191 99.7403 74.458 103.562C74.3455 103.901 74.077 104.169 73.7394 104.283C73.6239 104.32 73.5049 104.339 73.3845 104.339C73.1494 104.339 72.9238 104.268 72.7319 104.132C71.5126 103.273 70.0763 102.818 68.5787 102.818C65.5358 102.818 62.8036 104.742 61.78 107.604C61.6727 107.902 61.4453 108.142 61.1559 108.265C61.0159 108.324 60.8676 108.354 60.7149 108.354C60.5526 108.354 60.3955 108.32 60.2478 108.253C59.31 107.828 58.3075 107.612 57.2678 107.612C55.616 107.612 54.0029 108.184 52.7256 109.221C51.247 110.418 50.3129 112.113 50.0955 113.994C50.0631 114.267 50.0468 114.549 50.0468 114.833V115.094H47.7848V114.833C47.7848 114.532 47.7986 114.233 47.8259 113.944C48.0494 111.547 49.1658 109.345 50.9698 107.745C51.0736 107.652 51.1854 107.557 51.3014 107.463C51.7559 107.094 52.2465 106.767 52.7593 106.492C54.1408 105.745 55.7 105.35 57.2678 105.35C58.2384 105.35 59.1914 105.495 60.104 105.782C61.705 102.599 65.006 100.556 68.5787 100.556C70.0546 100.556 71.5166 100.902 72.825 101.559C74.7223 97.5105 78.8035 94.9101 83.2999 94.9101C85.8841 94.9101 88.3076 95.7305 90.3304 97.2878C91.1404 95.6052 92.3453 94.1358 93.8313 93.0222C95.8445 91.5118 98.243 90.7132 100.767 90.7132C103.398 90.7132 105.976 91.6232 108.027 93.2753C109.99 94.857 111.391 97.052 111.996 99.481C113.087 99.1478 114.225 98.9782 115.383 98.9782C117.582 98.9782 119.724 99.6002 121.579 100.777C122.096 101.104 122.594 101.48 123.06 101.892C123.162 101.982 123.263 102.075 123.359 102.168C125.644 104.342 126.954 107.397 126.954 110.549C126.954 111.745 126.773 112.922 126.417 114.045C126.285 114.462 126.124 114.884 125.939 115.297L125.832 115.535L123.768 114.607" fill="#394D5C"/>
<path d="M126.693 110.549C126.693 111.722 126.517 112.866 126.168 113.966C126.037 114.381 125.88 114.789 125.7 115.19L124.113 114.476C124.19 114.307 124.26 114.135 124.326 113.963C124.742 112.875 124.953 111.729 124.953 110.549C124.953 107.815 123.778 105.205 121.731 103.389C119.981 101.835 117.726 100.979 115.383 100.979C114.025 100.979 112.713 101.258 111.484 101.807C111.232 101.92 110.942 101.906 110.701 101.769C110.46 101.633 110.299 101.392 110.266 101.118C109.684 96.3264 105.601 92.7142 100.767 92.7142C96.5396 92.7142 92.863 95.426 91.6197 99.4628C91.5292 99.7568 91.29 99.9813 90.9916 100.053C90.6923 100.125 90.3782 100.033 90.1642 99.8134C88.3468 97.942 85.909 96.9111 83.2999 96.9111C79.1596 96.9111 75.5065 99.5515 74.2102 103.48C74.1232 103.742 73.9178 103.948 73.6568 104.035C73.395 104.121 73.1079 104.078 72.8825 103.919C71.6184 103.028 70.1299 102.557 68.5786 102.557C65.4258 102.557 62.5948 104.551 61.5343 107.516C61.4516 107.745 61.2776 107.93 61.054 108.024C60.8304 108.119 60.5764 108.116 60.3554 108.016C59.3836 107.575 58.3448 107.351 57.2678 107.351C55.5574 107.351 53.8852 107.943 52.5611 109.018C51.0247 110.262 50.0598 112.03 49.8362 113.963C49.8023 114.25 49.7858 114.54 49.7858 114.833H48.0458C48.0458 114.542 48.0588 114.254 48.0858 113.968C48.3024 111.644 49.3856 109.499 51.143 107.94C51.2482 107.846 51.3561 107.755 51.4657 107.666C51.9086 107.307 52.3836 106.99 52.883 106.721C54.221 105.998 55.7314 105.611 57.2678 105.611C58.2909 105.611 59.287 105.775 60.2388 106.1C61.7483 102.907 64.9951 100.817 68.5786 100.817C70.1203 100.817 71.6115 101.195 72.9487 101.917C74.7409 97.8411 78.7742 95.1711 83.2999 95.1711C85.9343 95.1711 88.4199 96.0602 90.4278 97.6975C91.2108 95.9436 92.4436 94.3881 93.9879 93.231C95.9558 91.7546 98.3005 90.9742 100.767 90.9742C106.106 90.9742 110.671 94.7047 111.806 99.816C112.954 99.4332 114.153 99.2392 115.383 99.2392C117.543 99.2392 119.639 99.8551 121.439 100.997C121.947 101.319 122.431 101.684 122.887 102.088C122.986 102.175 123.083 102.265 123.179 102.356C125.417 104.486 126.693 107.449 126.693 110.549" fill="#394D5C"/>
<path d="M68.1937 101.335L72.5576 96.844L72.4987 97.2103L70.524 92.4497L70.5198 92.4392C70.4897 92.367 70.5118 92.2852 70.5688 92.2365L75.329 88.198L70.8158 92.5114L70.8606 92.2983L73.1132 96.9336C73.1711 97.0528 73.1489 97.1903 73.0677 97.2843L73.0544 97.2999L68.9636 102.04L68.1937 101.335" fill="#394D5C"/>
<path d="M110.034 44.6058L111.833 56.316L111.835 56.3264C111.845 56.3873 111.827 56.4465 111.792 56.4908L108.105 61.275L108.118 61.2106L108.737 64.36L107.964 61.2454C107.958 61.2236 107.963 61.2019 107.975 61.1845L107.977 61.181L111.424 56.2211L111.383 56.396L109.006 44.7902L110.034 44.6058" fill="#394D5C"/>
<path d="M61.2759 48.6817L62.0693 57.8741L61.8962 57.6679L69.6565 60.2518L61.7553 58.1377C61.6623 58.1125 61.5975 58.0351 61.5841 57.9455L61.5821 57.9315L60.239 48.8026L61.2759 48.6817" fill="#394D5C"/>
<path d="M72.8999 72.1752H74.6428C74.8314 72.1752 75.1963 72.1143 75.7378 71.9925C76.0116 71.9377 76.2352 71.7976 76.4086 71.5731C76.582 71.3478 76.6687 71.0894 76.6687 70.7971C76.6687 70.3656 76.5318 70.0341 76.258 69.8027C75.9842 69.5713 75.4701 69.4556 74.7158 69.4556H72.8999V72.1752ZM68.7478 80.1322V66.7542H75.6375C76.9151 66.7542 77.8914 66.8638 78.5667 67.0831C79.242 67.3023 79.7865 67.7086 80.2001 68.3011C80.6138 68.8944 80.8207 69.6174 80.8207 70.4682C80.8207 71.2112 80.6625 71.8515 80.3459 72.3892C80.0294 72.9277 79.5941 73.3645 79.0403 73.6994C78.6872 73.9117 78.2032 74.0883 77.5885 74.2284C78.0808 74.3928 78.4395 74.5572 78.6646 74.7217C78.8166 74.8313 79.0368 75.0653 79.3258 75.4246C79.6145 75.7839 79.8075 76.0615 79.9048 76.2564L81.9066 80.1322H77.2357L75.0261 76.0441C74.7462 75.5151 74.4968 75.1715 74.2778 75.0131C73.9796 74.8061 73.6421 74.7025 73.2649 74.7025H72.8999V80.1322H68.7478" fill="#394D5C"/>
<path d="M85.2629 66.7542H89.4056V80.1322H85.2629V66.7542Z" fill="#394D5C"/>
<path d="M98.3744 72.4579H99.3871C100.184 72.4579 100.743 72.3196 101.066 72.0429C101.389 71.7663 101.55 71.4122 101.55 70.9798C101.55 70.5596 101.41 70.2038 101.13 69.9123C100.85 69.62 100.324 69.4738 99.5515 69.4738H98.3744V72.4579ZM94.2219 66.7542H101.094C102.59 66.7542 103.711 67.1109 104.457 67.8226C105.201 68.5342 105.575 69.5469 105.575 70.8615C105.575 72.2117 105.168 73.267 104.356 74.0274C103.544 74.7878 102.304 75.168 100.637 75.168H98.3744V80.1322H94.2219V66.7542" fill="#394D5C"/>
</svg>
