<svg width="16" height="14" viewBox="0 0 16 14" fill="none" xmlns="http://www.w3.org/2000/svg">
<path fill-rule="evenodd" clip-rule="evenodd" d="M10 1.76711C9.95456 1.7966 9.90959 1.82664 9.86515 1.85715H10V1.76711ZM7.92672 1.85715C7.19647 1.151 5.77823 0 4.26781 0C1.5981 0 0 1.56267 0 4.17867C0 6.32152 1.96457 8.11619 2.03581 8.17867L7.60724 13.5535C7.71429 13.6606 7.85714 13.7143 8 13.7143C8.14286 13.7143 8.28571 13.6606 8.39276 13.5535L13.9554 8.19657C13.9585 8.19348 13.9644 8.18785 13.9728 8.17976C14.184 7.9776 16 6.23909 16 4.17867C16 1.56267 14.4019 0 11.7322 0C10.2218 0 8.80358 1.15131 8.07332 1.85715H7.92672ZM6.1349 1.85715H6V1.76707C6.04545 1.79657 6.09044 1.82663 6.1349 1.85715Z" fill="#6DC476"/>
</svg>
