<svg width="50" height="50" viewBox="0 0 50 50" fill="none" xmlns="http://www.w3.org/2000/svg">
<path fill-rule="evenodd" clip-rule="evenodd" d="M25 49C38.2548 49 49 38.2548 49 25C49 11.7452 38.2548 1 25 1C11.7452 1 1 11.7452 1 25C1 38.2548 11.7452 49 25 49ZM25 50C38.8071 50 50 38.8071 50 25C50 11.1929 38.8071 0 25 0C11.1929 0 0 11.1929 0 25C0 38.8071 11.1929 50 25 50ZM25.5 43.9935C28.5715 43.9142 31.4617 43.1059 34.0039 41.7353L34.4993 8.54147C31.8398 7.00319 28.7729 6.091 25.5 6.00645V20.0247C28.0267 20.2755 30 22.4073 30 25C30 27.5927 28.0267 29.7245 25.5 29.9753V43.9935ZM24.5 29.9753C21.9733 29.7245 20 27.5927 20 25C20 22.4073 21.9733 20.2755 24.5 20.0247V6.00645C21.43 6.08576 18.5413 6.89325 16 8.26261V41.5H15.5727C18.2155 43.0132 21.2566 43.9098 24.5 43.9935V29.9753ZM44 25C44 31.8189 40.4079 37.7988 35.0127 41.1507L35.4903 9.15598C40.6188 12.5584 44 18.3843 44 25ZM15 8.84143C9.59776 12.1918 6 18.1758 6 25C6 31.8242 9.59776 37.8082 15 41.1586V8.84143ZM25 45C36.0457 45 45 36.0457 45 25C45 13.9543 36.0457 5 25 5C13.9543 5 5 13.9543 5 25C5 36.0457 13.9543 45 25 45ZM29 25C29 27.2091 27.2091 29 25 29C22.7909 29 21 27.2091 21 25C21 22.7909 22.7909 21 25 21C27.2091 21 29 22.7909 29 25Z" fill="black"/>
</svg>
